<svg xmlns="http://www.w3.org/2000/svg" xmlns:xlink="http://www.w3.org/1999/xlink" id="Capa_1" x="0px" y="0px" viewBox="0 0 50 50" style="enable-background:new 0 0 50 50;" xml:space="preserve">
<style type="text/css">
	.st0{fill:#FFFFFF;}
</style>
<g>
	<g>
		<path class="st0" d="M25,0C11.2,0,0,11.2,0,25s11.2,25,25,25s25-11.2,25-25S38.8,0,25,0z M38.5,6.4c-0.9,0.3-1.8,0.6-2.7,0.9    c-0.7-0.9-1.8-1.5-3-1.5c-0.3,0-0.6,0-0.8,0.1c-0.8-1.4-1.6-2.6-2.3-3.5C32.9,3.1,35.9,4.4,38.5,6.4z M32,39.1    c-0.4-0.1-0.8-0.2-1.2-0.2c-1.3,0-2.5,0.6-3.2,1.7c-3.7-1.6-7.1-4-9.9-7c1.3-1.6,1.2-4-0.4-5.3c-0.2-0.2-0.4-0.3-0.7-0.5    c1.3-4.1,3.5-7.9,6.6-10.9c3.3,0.2,6.5,0.9,9.5,2.2c-0.4,2.1,0.9,4.1,3,4.5c0,0,0.1,0,0.1,0C36.1,29.1,34.8,34.5,32,39.1z     M32.7,42.7c0,1.1-0.9,1.9-1.9,1.9c-1.1,0-1.9-0.9-1.9-1.9c0-1.1,0.9-1.9,1.9-1.9C31.8,40.8,32.7,41.7,32.7,42.7z M13.5,18.4    c2.3-0.7,4.7-1.2,7.1-1.3c-2.6,3-4.6,6.5-5.8,10.4c-0.4,0-0.8,0.1-1.1,0.2c-0.9-1.8-1.6-3.6-2.1-5.5c1.2-0.7,2-2,2-3.4    C13.5,18.6,13.5,18.5,13.5,18.4z M32.8,13.5c0.2,0,0.4,0,0.7-0.1c0.4,1.1,0.8,2.2,1.1,3.3c-0.4,0.2-0.7,0.5-1,0.8    c-2.7-1.2-5.5-1.9-8.4-2.2c1.5-1.2,3-2.3,4.7-3.2C30.6,12.9,31.7,13.4,32.8,13.5z M30.9,9.6c0-1.1,0.9-1.9,1.9-1.9    c1.1,0,1.9,0.9,1.9,1.9s-0.9,1.9-1.9,1.9C31.8,11.5,30.9,10.7,30.9,9.6L30.9,9.6z M34.6,20c0-1.1,0.9-1.9,1.9-1.9    c1.1,0,1.9,0.9,1.9,1.9c0,1.1-0.9,1.9-1.9,1.9C35.5,21.9,34.6,21,34.6,20z M10.3,7.3c4.1-3.5,9.3-5.4,14.7-5.4c0.7,0,1.3,0,2,0.1    c1.2,1.5,2.3,3.1,3.3,4.8C29.5,7.5,29,8.5,29,9.6c0,0.2,0,0.5,0.1,0.7c-2.4,1.3-4.6,2.9-6.6,4.8c-3.3,0-6.5,0.5-9.6,1.5    c-0.6-0.9-1.6-1.4-2.6-1.5C10,12.5,10,9.9,10.3,7.3z M9.7,16.9L9.7,16.9L9.7,16.9c1.1,0,1.9,0.9,1.9,1.9s-0.9,1.9-1.9,1.9    s-1.9-0.9-1.9-1.9C7.8,17.8,8.7,16.9,9.7,16.9z M8.2,9.3c-0.1,2-0.1,4,0.1,6c-1.4,0.6-2.4,2-2.4,3.5c0,0.2,0,0.5,0.1,0.7    c-1.3,0.7-2.6,1.5-3.8,2.4C2.8,17.2,4.9,12.8,8.2,9.3z M1.9,25c0-0.2,0-0.4,0-0.6c1.5-1.2,3.1-2.3,4.8-3.2    c0.7,0.9,1.8,1.4,2.9,1.4c0.6,2.1,1.4,4.1,2.4,6c-1.4,1.5-1.4,3.9,0.2,5.4c0.4,0.3,0.8,0.6,1.3,0.8c-0.2,3.5,0.1,7.1,0.8,10.6    C6.7,41.4,2,33.6,1.9,25z M12.9,31.2L12.9,31.2c0-1.1,0.8-1.9,1.9-1.9s1.9,0.9,1.9,1.9c0,1.1-0.9,1.9-1.9,1.9    C13.8,33.1,12.9,32.3,12.9,31.2z M24.3,48c-2.7-0.1-5.3-0.6-7.8-1.6c-1-3.7-1.4-7.6-1.2-11.4c0.3,0,0.6-0.1,0.8-0.2    c3,3.3,6.7,5.9,10.8,7.7c0,0.1,0,0.2,0,0.3c0,0.8,0.2,1.5,0.7,2.2C26.6,46,25.5,47.1,24.3,48z M27.3,47.9c0.6-0.6,1.2-1.2,1.7-1.8    c0.5,0.3,1.1,0.4,1.7,0.4c1.3,0,2.6-0.7,3.3-1.8c0.7,0.2,1.4,0.3,2.1,0.4C33.4,46.7,30.4,47.6,27.3,47.9z M38.6,43.6    c-1.4-0.2-2.7-0.4-4-0.7c0,0,0-0.1,0-0.1c0-0.9-0.3-1.8-1-2.5c3.1-5,4.5-10.8,4.1-16.7c0.5-0.2,0.9-0.4,1.3-0.7    c3.1,2.3,5.9,5,8.3,8C45.9,36,42.9,40.5,38.6,43.6z M47.8,28.4c-2.3-2.7-4.9-5.1-7.7-7.2c0.1-0.4,0.2-0.8,0.2-1.3    c0-2.1-1.7-3.8-3.8-3.8c-0.3-1.2-0.7-2.4-1.2-3.6c0.9-0.7,1.4-1.8,1.4-2.9c0-0.2,0-0.4-0.1-0.6c1.2-0.4,2.5-0.8,3.8-1.2    C46.2,13,49,20.7,47.8,28.4L47.8,28.4z"></path>
	</g>
</g>
</svg>