<svg xmlns="http://www.w3.org/2000/svg" xmlns:xlink="http://www.w3.org/1999/xlink" id="Layer_1" x="0px" y="0px" viewBox="0 0 50 50" style="enable-background:new 0 0 50 50;" xml:space="preserve">
<style type="text/css">
	.st0{fill:#FFFFFF;}
</style>
<g>
	<path class="st0" d="M44.6,2.4H12.5c-2.9,0-5.3,2.3-5.3,5.2L7,35.6H1c-0.5,0-1,0.5-1,1v3.9c0,3.6,2.9,6.7,6.4,7v0.1h27.4v0   c0,0,0,0,0,0c0.1,0,0.2,0,0.3,0c1.9,0,3.6-0.7,4.9-2.1c1.3-1.3,2-3.1,2-5V16.1h8c0.5,0,1-0.5,1-1V7.9C50,4.9,47.6,2.4,44.6,2.4z    M41.1,7.9c0-1.9,1.6-3.5,3.5-3.5C46.5,4.4,48,6,48,7.9v6.2h-6.9V7.9z M28.1,35.6H9l0.2-28c0-1.8,1.5-3.2,3.2-3.2h27.8   c-0.8,1-1.3,2.2-1.3,3.5v32.7c0,2.8-2.2,5-5,5c-2.8,0-5-2.3-5-5v-3.9C29.1,36.1,28.7,35.7,28.1,35.6z M29.2,45.5   C29.2,45.5,29.2,45.6,29.2,45.5L7,45.6c-2.7,0-5-2.3-5-5v-2.9h25.1v2.9C27.1,42.4,27.8,44.2,29.2,45.5z"></path>
	<path class="st0" d="M19,21.5l4.1,2.8c0.2,0.1,0.4,0.2,0.6,0.2c0.2,0,0.4-0.1,0.6-0.2l4.1-2.8c1.5-1,2.6-3.1,2.6-4.9l0-5.7   c0-0.4-0.2-0.7-0.5-0.9l-6.3-3.1c-0.3-0.1-0.6-0.1-0.9,0L16.9,10c-0.3,0.2-0.5,0.5-0.5,0.9v5.7C16.4,18.4,17.5,20.5,19,21.5z    M18.4,16.6v-5.1l5.3-2.6l5.3,2.6v5.1c0,1.2-0.8,2.6-1.7,3.3l-3.6,2.4l-3.6-2.4C19.1,19.3,18.4,17.8,18.4,16.6z"></path>
	<path class="st0" d="M22.1,18L22.1,18c0.2,0.2,0.4,0.3,0.7,0.3c0.3,0,0.5-0.1,0.7-0.3l3.2-3.2c0.2-0.2,0.3-0.4,0.3-0.7   c0-0.3-0.1-0.5-0.3-0.7c-0.4-0.4-1-0.4-1.4,0l-2.5,2.5L22,14.9c-0.4-0.4-1-0.4-1.4,0c-0.2,0.2-0.3,0.4-0.3,0.7   c0,0.3,0.1,0.5,0.3,0.7L22.1,18z"></path>
	<path class="st0" d="M14.4,28.8h19.3c0.6,0,1-0.5,1-1c0-0.6-0.5-1-1-1H14.4c-0.6,0-1,0.5-1,1C13.4,28.4,13.8,28.8,14.4,28.8z"></path>
	<path class="st0" d="M34.6,31.5c0-0.6-0.5-1-1-1H14.4c-0.6,0-1,0.5-1,1c0,0.6,0.5,1,1,1h19.3C34.2,32.5,34.6,32.1,34.6,31.5z"></path>
</g>
</svg>