<svg xmlns="http://www.w3.org/2000/svg" xmlns:xlink="http://www.w3.org/1999/xlink" id="Layer_1" x="0px" y="0px" viewBox="0 0 50 50" style="enable-background:new 0 0 50 50;" xml:space="preserve">
<style type="text/css">
	.st0{fill:#FFFFFF;}
</style>
<path class="st0" d="M48.1,24.7c-0.2-0.3-0.5-0.4-0.8-0.4h-0.5c-2.1,0-4.1,1-5.3,2.6l-5.9,6.8c-0.7-0.9-1.8-1.5-2.9-1.5H27  c0-0.4,0.1-1,0.1-1.8c0.4-2.7,1.1-4.8,1.8-6.4c0.9,0.3,1.8,0.5,2.6,0.5c1,0,1.9-0.3,2.7-0.8c3.5-2.3,3.4-8.6,3.4-9.9  c0-0.5-0.4-0.9-0.9-0.9c-4.3-0.2-7.2,0.7-8.8,2.9c-1.1,1.4-1.3,3.1-1.2,4.4c-0.5-2.8-1.3-5.1-2.4-7.1c1.2-2.7,1.2-5,0.1-6.7  c-2.7-4.1-10.7-3.5-10.8-3.5c-0.5,0-0.9,0.4-0.9,0.9c-0.2,4.7,0.9,7.9,3.2,9.6c1.2,0.9,2.6,1.3,4.3,1.3c1,0,1.9-0.2,2.6-0.3  c2.7,5.1,2.8,12.3,2.6,16c-0.1,0.6-0.1,1.2-0.2,1.8c-1.3-0.1-2.6-0.5-3.7-1.2c-1.8-1.1-4.7-2.6-8.3-3.4c-6.4-1.4-10.5,3.8-11,4.4  c-0.1,0.2-0.2,0.4-0.2,0.6v7.3c0,0.5,0.4,0.9,0.9,1L5,41c2.7,0.3,5.4,1,8,2.1l7.1,3.1c1.5,0.7,3.1,1,4.8,1c1.5,0,3-0.3,4.4-0.9  l5.6-2.3l1-0.2c3-0.7,5.5-2.9,6.7-5.7l5.5-12.5C48.3,25.3,48.2,24.9,48.1,24.7z M12.5,29.5c3.3,0.8,6.1,2.1,7.7,3.2  c1.6,1,3.4,1.5,5.3,1.5h7.1c0.9,0,1.7,0.8,1.7,1.7c0,0.9-0.8,1.7-1.7,1.7h-9.9c-1.5,0-2.9,0.2-4.4,0.7l-0.2,0.1l0.3,0.9l0.4,0.9  l0.2-0.1c1.2-0.4,2.5-0.6,3.7-0.6h9.9c2,0,3.6-1.6,3.6-3.6l6.7-7.8c0.7-0.9,1.6-1.5,2.7-1.8l-4.9,11.1c-1,2.3-3,4-5.4,4.6l-1,0.3  l-5.8,2.3c-2.5,1-5.3,0.9-7.7-0.1l-7.1-3.1c-2.7-1.2-5.6-1.9-8.6-2.2l-1.5-0.1v-6.1C4.5,32,7.9,28.4,12.5,29.5z M29.4,17  c1.1-1.4,3.2-2.2,6.3-2.1c0,2.7-0.7,6.1-2.5,7.2c-0.8,0.5-1.9,0.6-3.3,0.2c1.6-2.5,3.2-3.5,3.2-3.5c0.5-0.3,0.6-0.8,0.4-1.3  c-0.1-0.2-0.3-0.4-0.6-0.5c-0.2-0.1-0.5,0-0.7,0.1c-0.4,0.2-2,1.3-3.6,3.6C28.5,19.6,28.5,18.1,29.4,17z M18.4,7.7  c-0.5-0.2-1.1,0-1.3,0.5c-0.2,0.5,0,1.1,0.5,1.3c1.6,0.7,2.8,1.8,3.9,3.1c-1.3,0.2-3.2,0.3-4.6-0.8c-1.6-1.2-2.5-3.6-2.4-7  c3,0,6.8,0.7,8.2,2.7c0.6,0.9,0.7,2.2,0.2,3.7C21.6,9.6,20.1,8.5,18.4,7.7z"></path>
</svg>