<svg xmlns="http://www.w3.org/2000/svg" xmlns:xlink="http://www.w3.org/1999/xlink" id="Capa_1" x="0px" y="0px" viewBox="0 0 50 50" style="enable-background:new 0 0 50 50;" xml:space="preserve">
<style type="text/css">
	.st0{fill:#FFFFFF;}
</style>
<g>
	<g>
		<path class="st0" d="M35.5,25.6c-0.1-0.3-0.3-0.5-0.6-0.6c-0.1,0-0.5-0.2-1.3-0.3c3.2-3.4,2.1-7.4,1.9-8.1    c-0.1-0.3-0.3-0.5-0.6-0.6c-0.1-0.1-2.5-0.9-5.3,0.1c0.2-0.6,0.2-1.3,0.2-2.1c0-4.9-3.7-7-4.4-7.4c-0.3-0.1-0.6-0.2-0.9,0    c-0.2,0.1-4.5,2.1-4.5,7.4c0,0.8,0.1,1.5,0.2,2.1c-2.7-1-5.1-0.1-5.3-0.1c-0.3,0.1-0.5,0.3-0.6,0.6c-0.2,0.8-1.3,4.7,1.9,8.1    c-0.7,0.1-1.2,0.3-1.3,0.3c-0.3,0.1-0.5,0.3-0.6,0.6c-0.3,0.8-1.3,4.9,2.1,8.4c2,2,4.2,2.5,5.9,2.5c0.6,0,1.1-0.1,1.6-0.1v6.4    c0,0.5,0.4,1,1,1s1-0.4,1-1v-6.4c0.4,0.1,1,0.1,1.6,0.1c1.7,0,3.9-0.5,5.9-2.5C36.9,30.5,35.8,26.4,35.5,25.6z M24,33.2    c0,0.4-0.1,0.8-0.1,1.1c-1,0.2-3.7,0.5-5.9-1.7c-2.2-2.2-2-4.8-1.7-5.9c0.7-0.1,1.9-0.3,3.4,0.2c0.1,0,0.2,0.1,0.3,0.1    c0.8,0.3,1.5,0.7,2.3,1.5c1.4,1.4,1.8,3,1.9,4.2V33.2z M24,24.2c0,0.4-0.1,0.8-0.1,1.1c-0.6,0.1-1.9,0.3-3.3-0.1    c-0.1-0.1-0.3-0.1-0.4-0.1c-0.7-0.3-1.5-0.7-2.2-1.5c-2.2-2.2-2-4.8-1.7-5.9c1-0.2,3.7-0.5,5.9,1.7c0,0,0,0,0,0    c0.1,0.1,0.2,0.2,0.3,0.3c1.2,1.3,1.5,2.7,1.6,3.9L24,24.2L24,24.2z M25,19.3c-0.3-0.2-0.7-0.5-1.2-1c0-0.1-0.1-0.1-0.1-0.2    c-0.8-0.9-1.6-2.3-1.6-4.3c0-3.2,2-4.8,2.9-5.4c1,0.6,2.9,2.3,2.9,5.4c0,1.9-0.7,3.2-1.5,4.1c-0.2,0.2-0.3,0.3-0.4,0.5    C25.7,18.8,25.3,19.1,25,19.3z M26,23.8c0-1.1,0.3-2.7,1.5-4.1c0.1-0.1,0.3-0.3,0.4-0.5c2.2-2.2,4.8-1.9,5.9-1.7    c0.2,1.1,0.5,3.7-1.7,5.9c-0.7,0.7-1.5,1.2-2.2,1.5c-0.1,0-0.3,0.1-0.4,0.2c-1.4,0.4-2.6,0.3-3.3,0.1C26.1,24.9,26,24.4,26,23.8    C26,23.9,26,23.9,26,23.8z M32,32.6c-2.3,2.3-4.9,2-5.9,1.7c-0.2-1-0.5-3.7,1.7-5.9c0.7-0.7,1.5-1.2,2.2-1.5    c0.1,0,0.3-0.1,0.4-0.1c1.4-0.4,2.6-0.3,3.3-0.1C34,27.8,34.3,30.4,32,32.6z"></path>
	</g>
</g>
<g>
	<g>
		<path class="st0" d="M30.2,0.5C28.5,0.2,26.8,0,25,0C18.3,0,12,2.6,7.3,7.3C2.6,12,0,18.3,0,25c0,5.6,1.9,11,5.3,15.4    c-0.4,0.6-0.6,1.3-0.6,2c0,1,0.4,1.9,1.1,2.6c0.7,0.7,1.6,1.1,2.6,1.1s1.9-0.4,2.6-1.1c0.7-0.7,1.1-1.6,1.1-2.6s-0.4-1.9-1.1-2.6    c-0.7-0.7-1.6-1.1-2.6-1.1c-0.6,0-1.2,0.1-1.7,0.4C3.6,35,2,30.1,2,25C2,12.3,12.3,2,25,2c1.6,0,3.2,0.2,4.8,0.5    c0.5,0.1,1-0.2,1.2-0.8C31.1,1.2,30.7,0.7,30.2,0.5z M7.2,41.1c0.3-0.3,0.8-0.5,1.2-0.5c0.5,0,0.9,0.2,1.2,0.5    c0.3,0.3,0.5,0.8,0.5,1.2c0,0.5-0.2,0.9-0.5,1.2c-0.7,0.7-1.8,0.7-2.5,0c-0.3-0.3-0.5-0.8-0.5-1.2C6.6,41.9,6.8,41.5,7.2,41.1z"></path>
	</g>
</g>
<g>
	<g>
		<path class="st0" d="M44.7,9.6c0.4-0.6,0.6-1.3,0.6-2c0-1-0.4-1.9-1.1-2.6c-0.7-0.7-1.6-1.1-2.6-1.1S39.7,4.3,39,5    s-1.1,1.6-1.1,2.6s0.4,1.9,1.1,2.6c0.7,0.7,1.6,1.1,2.6,1.1c0.6,0,1.2-0.1,1.7-0.4c3.1,4,4.8,9,4.8,14.1c0,12.7-10.3,23-23,23    c-1.4,0-2.7-0.1-4.1-0.4c-0.5-0.1-1,0.3-1.1,0.8c-0.1,0.5,0.3,1,0.8,1.1C22,49.9,23.5,50,25,50c6.7,0,13-2.6,17.7-7.3    S50,31.7,50,25C50,19.4,48.1,14,44.7,9.6z M42.8,8.9c-0.3,0.3-0.8,0.5-1.2,0.5c-0.5,0-0.9-0.2-1.2-0.5c-0.7-0.7-0.7-1.8,0-2.5    c0.3-0.3,0.8-0.5,1.2-0.5c0.5,0,0.9,0.2,1.2,0.5c0.3,0.3,0.5,0.8,0.5,1.2C43.4,8.1,43.2,8.5,42.8,8.9z"></path>
	</g>
</g>
<g>
	<g>
		<path class="st0" d="M16.4,46.4l-0.4,0.9L16.4,46.4c-0.5-0.2-1.1,0-1.3,0.5s0,1.1,0.5,1.3l0,0c0.1,0,0.2,0.1,0.4,0.1    c0.4,0,0.8-0.2,0.9-0.6C17.2,47.2,16.9,46.6,16.4,46.4z"></path>
	</g>
</g>
<g>
	<g>
		<path class="st0" d="M34.4,1.8L34.4,1.8c-0.5-0.2-1.1,0-1.3,0.5c-0.2,0.5,0,1.1,0.5,1.3l0,0c0.1,0,0.2,0.1,0.4,0.1    c0.4,0,0.8-0.2,0.9-0.6C35.1,2.6,34.9,2,34.4,1.8z"></path>
	</g>
</g>
</svg>